<svg width="24" height="24" viewBox="0 0 24 24" fill="none" xmlns="http://www.w3.org/2000/svg">
<path d="M8.95459 6.92105C8.96685 4.7116 9.0649 3.51514 9.84537 2.73458C10.738 1.84204 12.1745 1.84204 15.0476 1.84204H16.0635C18.9365 1.84204 20.3732 1.84204 21.2657 2.73458C22.1582 3.62713 22.1582 5.06372 22.1582 7.93681V16.0633C22.1582 18.9364 22.1582 20.3729 21.2657 21.2655C20.3732 22.1581 18.9365 22.1581 16.0635 22.1581H15.0476C12.1745 22.1581 10.738 22.1581 9.84537 21.2655C9.0649 20.485 8.96694 19.2884 8.95459 17.0791" stroke="#E22626" stroke-width="1.5" stroke-linecap="round"/>
<path d="M15.0472 12H1.8418M1.8418 12L5.39711 8.95264M1.8418 12L5.39711 15.0474" stroke="#E22626" stroke-width="1.5" stroke-linecap="round" stroke-linejoin="round"/>
</svg>
