<svg width="24" height="24" viewBox="0 0 24 24" fill="none" xmlns="http://www.w3.org/2000/svg">
<path d="M1.08002 5.99399C1.08002 3.67748 1.08002 2.51927 1.79966 1.79963C2.5193 1.07999 3.67751 1.07999 5.99402 1.07999C8.31052 1.07999 9.46873 1.07999 10.1884 1.79963C10.908 2.51927 10.908 3.67748 10.908 5.99399C10.908 8.31049 10.908 9.4687 10.1884 10.1883C9.46873 10.908 8.31052 10.908 5.99402 10.908C3.67751 10.908 2.5193 10.908 1.79966 10.1883C1.08002 9.4687 1.08002 8.31049 1.08002 5.99399Z" fill="#008DD2"/>
<path d="M13.092 18.006C13.092 15.6896 13.092 14.5313 13.8116 13.8117C14.5313 13.092 15.6896 13.092 18.006 13.092C20.3224 13.092 21.4807 13.092 22.2003 13.8117C22.92 14.5313 22.92 15.6896 22.92 18.006C22.92 20.3224 22.92 21.4807 22.2003 22.2004C21.4807 22.92 20.3225 22.92 18.006 22.92C15.6895 22.92 14.5313 22.92 13.8116 22.2004C13.092 21.4807 13.092 20.3225 13.092 18.006Z" fill="#008DD2"/>
<path d="M1.08002 18.006C1.08002 15.6896 1.08002 14.5313 1.79966 13.8117C2.5193 13.092 3.67751 13.092 5.99402 13.092C8.31052 13.092 9.46873 13.092 10.1884 13.8117C10.908 14.5313 10.908 15.6896 10.908 18.006C10.908 20.3224 10.908 21.4807 10.1884 22.2004C9.46873 22.92 8.31052 22.92 5.99402 22.92C3.67751 22.92 2.5193 22.92 1.79966 22.2004C1.08002 21.4807 1.08002 20.3225 1.08002 18.006Z" fill="#008DD2"/>
<path d="M13.092 5.99399C13.092 3.67748 13.092 2.51927 13.8116 1.79963C14.5313 1.07999 15.6896 1.07999 18.006 1.07999C20.3224 1.07999 21.4807 1.07999 22.2003 1.79963C22.92 2.51927 22.92 3.67748 22.92 5.99399C22.92 8.31049 22.92 9.4687 22.2003 10.1883C21.4807 10.908 20.3225 10.908 18.006 10.908C15.6895 10.908 14.5313 10.908 13.8116 10.1883C13.092 9.4687 13.092 8.31049 13.092 5.99399Z" fill="#008DD2"/>
</svg>
