<svg width="24" height="24" viewBox="0 0 24 24" fill="none" xmlns="http://www.w3.org/2000/svg">
<rect x="0.5" y="0.5" width="23" height="23" rx="5.5" fill="#F2F2F2"/>
<rect x="0.5" y="0.5" width="23" height="23" rx="5.5" stroke="#CCCCCC"/>
<g clip-path="url(#clip0_161_1242)">
<path d="M6.07446 11.8518C6.07446 9.61714 6.07446 8.49984 6.76866 7.80559C7.46292 7.11139 8.58021 7.11139 10.8149 7.11139H13.1851C15.4198 7.11139 16.5372 7.11139 17.2313 7.80559C17.9256 8.49984 17.9256 9.61714 17.9256 11.8518V13.037C17.9256 15.2716 17.9256 16.389 17.2314 17.0832C16.5372 17.7774 15.4198 17.7774 13.1851 17.7774H10.8149C8.58021 17.7774 7.46292 17.7774 6.76866 17.0832C6.07446 16.389 6.07446 15.2716 6.07446 13.037V11.8518Z" stroke="#878787"/>
<path d="M9.03723 7.11141V6.22253" stroke="#878787" stroke-linecap="round"/>
<path d="M14.9628 7.11141V6.22253" stroke="#878787" stroke-linecap="round"/>
<path d="M13.7777 14.5184C13.7777 15.2026 14.5184 15.6303 15.111 15.2881C15.386 15.1294 15.5554 14.8359 15.5554 14.5184C15.5554 13.8341 14.8147 13.4065 14.2221 13.7486C13.9471 13.9074 13.7777 14.2009 13.7777 14.5184Z" stroke="#878787"/>
<path d="M6.37073 10.0742H17.6294" stroke="#878787" stroke-linecap="round"/>
</g>
<defs>
<clipPath id="clip0_161_1242">
<rect width="14" height="14" fill="white" transform="translate(5 5)"/>
</clipPath>
</defs>
</svg>
