<svg width="16" height="16" viewBox="0 0 16 16" fill="none" xmlns="http://www.w3.org/2000/svg">
    <g clip-path="url(#clip0_81_475)">
        <path d="M8.71533 1.25269C8.71533 1.25269 10.3726 1.40336 12.482 3.5127C14.5913 5.62205 14.7419 7.2793 14.7419 7.2793"
              stroke="black" stroke-linecap="round"/>
        <path d="M9.21777 3.76385C9.21777 3.76385 9.92095 3.96474 10.9756 5.01941C12.0302 6.07408 12.2312 6.77719 12.2312 6.77719"
              stroke="black" stroke-linecap="round"/>
        <path d="M10.2386 10.8721L10.5621 10.5315L9.78963 9.79783L9.46611 10.1384L10.2386 10.8721ZM11.6265 10.3881L12.9835 11.1691L13.5149 10.2458L12.158 9.46478L11.6265 10.3881ZM13.2453 12.7884L12.2364 13.8507L13.0089 14.5844L14.0178 13.5221L13.2453 12.7884ZM11.6293 14.191C10.6101 14.2917 7.95075 14.2058 5.06419 11.1668L4.29168 11.9005C7.43762 15.2126 10.4386 15.3792 11.7339 15.2513L11.6293 14.191ZM5.06419 11.1668C2.31116 8.26835 1.84935 5.82348 1.79178 4.75117L0.727946 4.80824C0.798455 6.12167 1.35609 8.80989 4.29168 11.9005L5.06419 11.1668ZM6.04098 6.4528L6.24471 6.2383L5.47226 5.50461L5.26854 5.71911L6.04098 6.4528ZM6.40474 3.56817L5.5091 2.30141L4.63921 2.91649L5.53485 4.18319L6.40474 3.56817ZM2.47781 2.02835L1.36296 3.202L2.13541 3.93569L3.25026 2.76204L2.47781 2.02835ZM5.65476 6.08596C5.26854 5.71911 5.26804 5.7196 5.26755 5.7201C5.26736 5.72028 5.26686 5.72084 5.26656 5.72121C5.26587 5.72189 5.26519 5.72264 5.26451 5.72338C5.26309 5.72493 5.26166 5.72647 5.26012 5.72815C5.25715 5.73136 5.25399 5.73496 5.25071 5.73873C5.24402 5.74641 5.23672 5.75514 5.22892 5.76498C5.21332 5.78473 5.19567 5.80899 5.1771 5.8379C5.13996 5.89603 5.09966 5.97248 5.06555 6.06837C4.99616 6.26337 4.95833 6.52164 5.00557 6.84416C5.09842 7.47776 5.51362 8.32988 6.59837 9.47196L7.37088 8.73827C6.35688 7.67066 6.1071 7.01323 6.05968 6.68971C6.03684 6.53359 6.06005 6.45138 6.06927 6.42557C6.07441 6.41102 6.07782 6.40699 6.07447 6.41219C6.07293 6.41467 6.06971 6.41937 6.06432 6.42618C6.06166 6.42953 6.05844 6.43349 6.05454 6.43795C6.05262 6.44011 6.05052 6.44246 6.04829 6.44494C6.04717 6.44624 6.046 6.44748 6.04476 6.44878C6.04414 6.44946 6.04352 6.45008 6.0429 6.45076C6.04259 6.45113 6.0421 6.45163 6.04197 6.45175C6.04148 6.45231 6.04098 6.4528 5.65476 6.08596ZM6.59837 9.47196C7.68004 10.6107 8.49693 11.0583 9.12013 11.1595C9.43999 11.2115 9.69887 11.17 9.89487 11.0927C9.99069 11.0549 10.0665 11.0105 10.1234 10.9702C10.1518 10.9501 10.1754 10.9309 10.1945 10.9142C10.2041 10.9059 10.2124 10.8981 10.2197 10.8909C10.2235 10.8875 10.2269 10.8841 10.23 10.8809C10.2316 10.8794 10.2331 10.8778 10.2345 10.8763L10.2366 10.8742C10.237 10.8739 10.2374 10.8732 10.2376 10.8731C10.2381 10.8726 10.2386 10.8721 9.85234 10.5052C9.46611 10.1384 9.46661 10.1379 9.4671 10.1374C9.46723 10.1372 9.46772 10.1366 9.46803 10.1363L9.46995 10.1344C9.47125 10.1331 9.47243 10.1318 9.47354 10.1306C9.47596 10.1283 9.47825 10.126 9.48035 10.1239C9.48462 10.1199 9.48852 10.1163 9.49193 10.1133C9.49867 10.1074 9.50375 10.1035 9.50703 10.1012C9.51366 10.0965 9.51297 10.0981 9.50394 10.1017C9.49026 10.107 9.42569 10.1298 9.29098 10.108C9.00498 10.0615 8.3881 9.80916 7.37088 8.73827L6.59837 9.47196ZM5.5091 2.30141C4.78921 1.2832 3.34868 1.11141 2.47781 2.02835L3.25026 2.76204C3.62156 2.37105 4.27534 2.40182 4.63921 2.91649L5.5091 2.30141ZM1.79178 4.75117C1.77655 4.46752 1.90005 4.1835 2.13541 3.93569L1.36296 3.202C0.982374 3.60271 0.693093 4.15929 0.727946 4.80824L1.79178 4.75117ZM12.2364 13.8507C12.0382 14.0594 11.8309 14.1712 11.6293 14.191L11.7339 15.2513C12.2646 15.1989 12.694 14.9159 13.0089 14.5844L12.2364 13.8507ZM6.24471 6.2383C6.93192 5.51482 6.98057 4.38258 6.40474 3.56817L5.53485 4.18319C5.83465 4.60724 5.78866 5.17144 5.47226 5.50461L6.24471 6.2383ZM12.9835 11.1691C13.5664 11.5047 13.6806 12.3303 13.2453 12.7884L14.0178 13.5221C14.9447 12.5463 14.6747 10.9134 13.5149 10.2458L12.9835 11.1691ZM10.5621 10.5315C10.8358 10.2432 11.2624 10.1785 11.6265 10.3881L12.158 9.46478C11.3778 9.01566 10.4102 9.14448 9.78963 9.79783L10.5621 10.5315Z"
              fill="black"/>
    </g>
    <defs>
        <clipPath id="clip0_81_475">
            <rect width="16" height="16" fill="white"/>
        </clipPath>
    </defs>
</svg>
