<svg width="24" height="24" viewBox="0 0 24 24" fill="none" xmlns="http://www.w3.org/2000/svg">
<path d="M10.1429 21.2857C14.2456 21.2857 17.5715 17.9598 17.5715 13.8571C17.5715 9.75444 14.2456 6.42856 10.1429 6.42856C6.04024 6.42856 2.71436 9.75444 2.71436 13.8571C2.71436 15.0044 2.97443 16.0909 3.43883 17.0609C3.59844 17.3943 3.65449 17.7721 3.55894 18.1291L3.25433 19.2676C3.01424 20.1649 3.83515 20.9858 4.73247 20.7457L5.87093 20.4411C6.228 20.3456 6.60573 20.4016 6.93913 20.5612C7.90916 21.0256 8.99567 21.2857 10.1429 21.2857Z" stroke="#878787"/>
<path d="M17.5713 14.3231C17.6331 14.2974 17.6943 14.2706 17.7549 14.243C18.0911 14.0894 18.4684 14.0319 18.8255 14.1275L19.2675 14.2458C20.1648 14.4858 20.9857 13.6649 20.7456 12.7677L20.6273 12.3256C20.5318 11.9685 20.5893 11.5913 20.7429 11.255C21.0914 10.492 21.2856 9.64368 21.2856 8.75001C21.2856 5.41658 18.5834 2.71429 15.2499 2.71429C12.7406 2.71429 10.589 4.2455 9.67847 6.42449" stroke="#878787"/>
<path d="M6.90991 13.8571H6.91827M10.1513 13.8571H10.1597M13.3929 13.8571H13.4013" stroke="#878787" stroke-linecap="round" stroke-linejoin="round"/>
</svg>
