<svg width="14" height="14" viewBox="0 0 14 14" fill="none" xmlns="http://www.w3.org/2000/svg">
<path d="M7.00016 12.4167C9.99168 12.4167 12.4168 9.99153 12.4168 7.00001C12.4168 4.00847 9.99168 1.58334 7.00016 1.58334C4.00862 1.58334 1.5835 4.00847 1.5835 7.00001C1.5835 7.86651 1.78696 8.68546 2.1487 9.41178C2.24484 9.60478 2.27683 9.8254 2.2211 10.0337L1.89848 11.2395C1.75843 11.7629 2.23729 12.2417 2.76073 12.1017L3.9665 11.7791C4.17479 11.7233 4.3954 11.7554 4.58841 11.8514C5.3147 12.2132 6.13366 12.4167 7.00016 12.4167Z" stroke="#008DD2"/>
<path d="M4.8335 6.1875H9.16683" stroke="#008DD2" stroke-linecap="round"/>
<path d="M4.8335 8.08333H7.81266" stroke="#008DD2" stroke-linecap="round"/>
</svg>
