<svg width="26" height="26" viewBox="0 0 26 26" fill="none" xmlns="http://www.w3.org/2000/svg">
<rect width="26" height="26" rx="10" fill="#008DD2" fill-opacity="0.24"/>
<path d="M12.75 19.25C15.5114 19.25 17.75 17.0114 17.75 14.25C17.75 11.4886 15.5114 9.25 12.75 9.25C9.98857 9.25 7.75 11.4886 7.75 14.25C7.75 15.0222 7.92505 15.7535 8.23763 16.4064C8.34506 16.6308 8.38278 16.8851 8.31847 17.1254L8.11344 17.8917C7.95184 18.4956 8.50438 19.0481 9.10834 18.8866L9.87462 18.6815C10.115 18.6173 10.3692 18.6549 10.5936 18.7624C11.2465 19.0749 11.9778 19.25 12.75 19.25Z" stroke="#008DD2"/>
<path d="M17.75 14.5636C17.7916 14.5463 17.8328 14.5283 17.8736 14.5097C18.0999 14.4063 18.3538 14.3676 18.5941 14.4319L18.8917 14.5116C19.4956 14.6731 20.0481 14.1206 19.8866 13.5167L19.8069 13.2191C19.7426 12.9788 19.7813 12.7249 19.8847 12.4986C20.1192 11.985 20.25 11.414 20.25 10.8125C20.25 8.56884 18.4312 6.75 16.1875 6.75C14.4986 6.75 13.0504 7.78062 12.4375 9.24725" stroke="#008DD2"/>
<path d="M10.574 14.25H10.5796M12.7557 14.25H12.7613M14.9375 14.25H14.9432" stroke="#008DD2" stroke-linecap="round" stroke-linejoin="round"/>
</svg>
