<svg width="24" height="24" viewBox="0 0 24 24" fill="none" xmlns="http://www.w3.org/2000/svg">
<path d="M12.0001 21.2857C17.1284 21.2857 21.2858 17.1283 21.2858 12C21.2858 6.87163 17.1284 2.71428 12.0001 2.71428C6.87171 2.71428 2.71436 6.87163 2.71436 12C2.71436 13.4854 3.06315 14.8893 3.68328 16.1345C3.84809 16.4653 3.90294 16.8435 3.8074 17.2006L3.25433 19.2676C3.01424 20.1649 3.83515 20.9858 4.73247 20.7457L6.7995 20.1927C7.15658 20.0971 7.53476 20.152 7.86563 20.3167C9.1107 20.9369 10.5146 21.2857 12.0001 21.2857Z" stroke="#878787"/>
<path d="M8.28564 10.6071H15.7142" stroke="#878787" stroke-linecap="round"/>
<path d="M8.28564 13.8571H13.3928" stroke="#878787" stroke-linecap="round"/>
</svg>
