<svg width="26" height="26" viewBox="0 0 26 26" fill="none" xmlns="http://www.w3.org/2000/svg">
<rect width="26" height="26" rx="10" fill="#F30000" fill-opacity="0.24"/>
<path d="M11.2417 8.33902C11.4976 7.61492 12.1882 7.09611 13 7.09611C13.8118 7.09611 14.5024 7.61492 14.7583 8.33902" stroke="#F30000" stroke-linecap="round"/>
<path d="M18.2825 9.58198H7.71753" stroke="#F30000" stroke-linecap="round"/>
<path d="M17.2467 11.1356L16.9609 15.4231C16.8509 17.0731 16.7959 17.8981 16.2583 18.401C15.7207 18.9039 14.8939 18.9039 13.2403 18.9039H12.7597C11.1061 18.9039 10.2793 18.9039 9.74179 18.401C9.20419 17.8981 9.14921 17.0731 9.03919 15.4231L8.75336 11.1356" stroke="#F30000" stroke-linecap="round"/>
<path d="M11.4464 12.6892L11.7571 15.7966" stroke="#F30000" stroke-linecap="round"/>
<path d="M14.5537 12.6892L14.243 15.7966" stroke="#F30000" stroke-linecap="round"/>
</svg>
