<svg width="26" height="26" viewBox="0 0 26 26" fill="none" xmlns="http://www.w3.org/2000/svg">
<rect width="26" height="26" rx="10" fill="#00F361" fill-opacity="0.24"/>
<g clip-path="url(#clip0_109_1566)">
<path d="M18.9256 12.1112V13C18.9256 15.7933 18.9256 17.1901 18.0578 18.0578C17.19 18.9256 15.7933 18.9256 13 18.9256C10.2067 18.9256 8.81002 18.9256 7.94221 18.0578C7.07446 17.1901 7.07446 15.7933 7.07446 13C7.07446 10.2067 7.07446 8.80999 7.94221 7.94219C8.81002 7.07444 10.2067 7.07444 13 7.07444H13.8888" stroke="#19C15C" stroke-linecap="round"/>
<path d="M15.7566 7.93661L16.1411 7.55219C16.7781 6.91519 17.8109 6.91519 18.4479 7.55219C19.0848 8.18919 19.0848 9.22193 18.4479 9.85893L18.0633 10.2434M15.7566 7.93661C15.7566 7.93661 15.8046 8.75361 16.5255 9.47446C17.2464 10.1954 18.0633 10.2434 18.0633 10.2434M15.7566 7.93661L12.2221 11.4711C11.9827 11.7106 11.863 11.8302 11.76 11.9623C11.6386 12.1179 11.5345 12.2864 11.4495 12.4646C11.3775 12.6157 11.324 12.7763 11.2169 13.0976L10.8742 14.1259M18.0633 10.2434L14.5288 13.7779C14.2894 14.0173 14.1698 14.137 14.0377 14.24C13.8821 14.3614 13.7136 14.4655 13.5354 14.5505C13.3842 14.6225 13.2237 14.676 12.9024 14.7831L11.8741 15.1259M10.8742 14.1259L10.6524 14.7912C10.5996 14.9494 10.6408 15.1236 10.7586 15.2414C10.8764 15.3592 11.0507 15.4003 11.2088 15.3476L11.8741 15.1259M10.8742 14.1259L11.8741 15.1259" stroke="#19C15C"/>
</g>
<defs>
<clipPath id="clip0_109_1566">
<rect width="14" height="14" fill="white" transform="translate(6 6)"/>
</clipPath>
</defs>
</svg>
