<svg width="128" height="22" viewBox="0 0 128 22" fill="none" xmlns="http://www.w3.org/2000/svg">
<path d="M9.14333 2.75L7.31476 4.58333V6.41667H4.57191C3.52049 6.41667 2.85306 7.33333 2.74334 8.25L1.82906 17.4167C1.71934 18.3333 2.32277 19.25 3.65763 19.25H18.2862C19.621 19.25 20.2245 18.3333 20.1148 17.4167L19.2005 8.25C19.0908 7.33333 18.341 6.41667 17.3719 6.41667H14.629V4.58333L12.8005 2.75H9.14333ZM9.14333 4.58333H12.8005V6.41667H9.14333V4.58333ZM10.0576 9.16667H11.8862V11.9167H14.629V13.75H11.8862V16.5H10.0576V13.75H7.31476V11.9167H10.0576V9.16667Z" fill="#1B9779"/>
<path d="M37.7417 5.89601V16.1333H35.6937V9.47467L32.9582 16.1333H31.4075L28.6574 9.47467V16.1333H26.6094V5.89601H28.9353L32.1829 13.508L35.4304 5.89601H37.7417ZM47.3002 11.8947C47.3002 12.188 47.2807 12.452 47.2417 12.6867H41.3172C41.3659 13.2733 41.5707 13.7329 41.9316 14.0653C42.2924 14.3978 42.7361 14.564 43.2628 14.564C44.0234 14.564 44.5647 14.2364 44.8865 13.5813H47.0954C46.8614 14.3636 46.4127 15.0089 45.7496 15.5173C45.0864 16.016 44.2721 16.2653 43.3066 16.2653C42.5264 16.2653 41.8243 16.0943 41.2001 15.752C40.5857 15.4 40.103 14.9063 39.7519 14.2707C39.4105 13.6351 39.2399 12.9018 39.2399 12.0707C39.2399 11.2298 39.4105 10.4916 39.7519 9.85601C40.0932 9.22043 40.5711 8.73159 41.1855 8.38934C41.7999 8.04709 42.5069 7.87601 43.3066 7.87601C44.0771 7.87601 44.7646 8.04225 45.3693 8.37467C45.9837 8.70709 46.4566 9.18134 46.7882 9.79734C47.1295 10.4036 47.3002 11.1027 47.3002 11.8947ZM45.1791 11.308C45.1693 10.78 44.9791 10.3596 44.6086 10.0467C44.238 9.72401 43.7845 9.56267 43.2481 9.56267C42.741 9.56267 42.3119 9.71909 41.9608 10.032C41.6195 10.3351 41.4098 10.7604 41.3318 11.308H45.1791ZM48.2684 12.0413C48.2684 11.22 48.4294 10.4916 48.7512 9.85601C49.0828 9.22043 49.5314 8.73159 50.097 8.38934C50.6627 8.04709 51.2917 7.87601 51.9841 7.87601C52.5107 7.87601 53.013 7.99334 53.4908 8.22801C53.9688 8.45292 54.3491 8.75601 54.6319 9.13734V5.28001H56.7091V16.1333H54.6319V14.9307C54.3784 15.3316 54.0224 15.6543 53.564 15.8987C53.1057 16.1431 52.5741 16.2653 51.9695 16.2653C51.2868 16.2653 50.6627 16.0893 50.097 15.7373C49.5314 15.3853 49.0828 14.8916 48.7512 14.256C48.4294 13.6107 48.2684 12.8724 48.2684 12.0413ZM54.6465 12.0707C54.6465 11.572 54.549 11.1467 54.3539 10.7947C54.1589 10.4329 53.8956 10.1591 53.564 9.97334C53.2324 9.77776 52.8764 9.68001 52.4961 9.68001C52.1158 9.68001 51.7647 9.77292 51.4428 9.95867C51.121 10.1444 50.8577 10.4183 50.6529 10.78C50.4579 11.132 50.3603 11.5524 50.3603 12.0413C50.3603 12.5303 50.4579 12.9604 50.6529 13.332C50.8577 13.6938 51.121 13.9724 51.4428 14.168C51.7745 14.3636 52.1256 14.4613 52.4961 14.4613C52.8764 14.4613 53.2324 14.3684 53.564 14.1827C53.8956 13.9871 54.1589 13.7133 54.3539 13.3613C54.549 12.9996 54.6465 12.5693 54.6465 12.0707ZM59.748 7.04001C59.3872 7.04001 59.0849 6.92757 58.841 6.70267C58.607 6.46801 58.4899 6.17957 58.4899 5.83734C58.4899 5.49512 58.607 5.21157 58.841 4.98667C59.0849 4.75201 59.3872 4.63467 59.748 4.63467C60.1089 4.63467 60.4063 4.75201 60.6403 4.98667C60.8842 5.21157 61.006 5.49512 61.006 5.83734C61.006 6.17957 60.8842 6.46801 60.6403 6.70267C60.4063 6.92757 60.1089 7.04001 59.748 7.04001ZM60.7574 8.00801V16.1333H58.7094V8.00801H60.7574ZM62.2542 12.0707C62.2542 11.2298 62.4249 10.4964 62.7662 9.87067C63.1075 9.23509 63.5805 8.74625 64.1851 8.40401C64.7898 8.05201 65.4822 7.87601 66.2624 7.87601C67.2669 7.87601 68.0959 8.13025 68.7492 8.63867C69.4124 9.13734 69.8562 9.84134 70.0804 10.7507H67.8715C67.7545 10.3987 67.5546 10.1249 67.2718 9.92934C66.9987 9.72401 66.6574 9.62134 66.2478 9.62134C65.6626 9.62134 65.1994 9.83643 64.858 10.2667C64.5168 10.6871 64.346 11.2884 64.346 12.0707C64.346 12.8431 64.5168 13.4444 64.858 13.8747C65.1994 14.2951 65.6626 14.5053 66.2478 14.5053C67.0768 14.5053 67.618 14.1338 67.8715 13.3907H70.0804C69.8562 14.2707 69.4124 14.9698 68.7492 15.488C68.0861 16.0063 67.2571 16.2653 66.2624 16.2653C65.4822 16.2653 64.7898 16.0943 64.1851 15.752C63.5805 15.4 63.1075 14.9111 62.7662 14.2853C62.4249 13.6498 62.2542 12.9116 62.2542 12.0707ZM78.1678 16.2653C77.5044 16.2653 76.9097 16.148 76.3831 15.9133C75.8565 15.6689 75.4374 15.3413 75.125 14.9307C74.823 14.52 74.6569 14.0653 74.6277 13.5667H76.6903C76.7291 13.8796 76.8805 14.1387 77.1438 14.344C77.4166 14.5493 77.7531 14.652 78.1531 14.652C78.543 14.652 78.8458 14.5738 79.0601 14.4173C79.2847 14.2609 79.3966 14.0604 79.3966 13.816C79.3966 13.552 79.2598 13.3564 78.987 13.2293C78.7237 13.0924 78.2994 12.9458 77.7143 12.7893C77.1094 12.6427 76.612 12.4911 76.2222 12.3347C75.8418 12.1783 75.5105 11.9387 75.2274 11.616C74.9546 11.2933 74.8178 10.8583 74.8178 10.3107C74.8178 9.86092 74.9444 9.45025 75.1982 9.07867C75.4615 8.70709 75.8323 8.41376 76.3099 8.19867C76.7978 7.98359 77.3683 7.87601 78.0215 7.87601C78.987 7.87601 79.7572 8.12043 80.3328 8.60934C80.9084 9.08843 81.2251 9.73867 81.2837 10.56H79.3234C79.2942 10.2373 79.1574 9.98309 78.9138 9.79734C78.6798 9.60176 78.3631 9.50401 77.963 9.50401C77.5921 9.50401 77.3047 9.57243 77.0999 9.70934C76.9046 9.84625 76.8073 10.0369 76.8073 10.2813C76.8073 10.5551 76.9441 10.7653 77.2169 10.912C77.4897 11.0489 77.914 11.1907 78.4896 11.3373C79.0747 11.484 79.5575 11.6356 79.9378 11.792C80.3182 11.9484 80.6451 12.1929 80.9179 12.5253C81.201 12.848 81.3473 13.2783 81.3568 13.816C81.3568 14.2853 81.2251 14.7058 80.9618 15.0773C80.708 15.4489 80.3379 15.7423 79.8501 15.9573C79.3724 16.1627 78.8114 16.2653 78.1678 16.2653ZM90.5713 11.8947C90.5713 12.188 90.5523 12.452 90.5128 12.6867H84.5883C84.6373 13.2733 84.8421 13.7329 85.2027 14.0653C85.564 14.3978 86.0072 14.564 86.5339 14.564C87.2945 14.564 87.8358 14.2364 88.1576 13.5813H90.3665C90.1325 14.3636 89.6841 15.0089 89.0207 15.5173C88.358 16.016 87.5432 16.2653 86.5777 16.2653C85.798 16.2653 85.0959 16.0943 84.4712 15.752C83.8568 15.4 83.3741 14.9063 83.023 14.2707C82.6822 13.6351 82.511 12.9018 82.511 12.0707C82.511 11.2298 82.6822 10.4916 83.023 9.85601C83.3646 9.22043 83.8422 8.73159 84.4566 8.38934C85.071 8.04709 85.7783 7.87601 86.5777 7.87601C87.3487 7.87601 88.0362 8.04225 88.6404 8.37467C89.2548 8.70709 89.728 9.18134 90.0593 9.79734C90.4009 10.4036 90.5713 11.1027 90.5713 11.8947ZM88.4502 11.308C88.4407 10.78 88.2505 10.3596 87.8797 10.0467C87.5096 9.72401 87.0561 9.56267 86.5192 9.56267C86.0123 9.56267 85.583 9.71909 85.2319 10.032C84.8911 10.3351 84.6811 10.7604 84.6029 11.308H88.4502ZM94.1144 9.26934C94.3777 8.83909 94.7193 8.50176 95.1384 8.25734C95.5677 8.01292 96.0556 7.89067 96.6012 7.89067V10.0467H96.06C95.4163 10.0467 94.9292 10.1983 94.5971 10.5013C94.2753 10.8044 94.1144 11.3324 94.1144 12.0853V16.1333H92.0664V8.00801H94.1144V9.26934ZM101.36 14.2413L103.408 8.00801H105.588L102.589 16.1333H100.102L97.1176 8.00801H99.3119L101.36 14.2413ZM107.777 7.04001C107.415 7.04001 107.113 6.92757 106.87 6.70267C106.636 6.46801 106.519 6.17957 106.519 5.83734C106.519 5.49512 106.636 5.21157 106.87 4.98667C107.113 4.75201 107.415 4.63467 107.777 4.63467C108.137 4.63467 108.435 4.75201 108.669 4.98667C108.913 5.21157 109.035 5.49512 109.035 5.83734C109.035 6.17957 108.913 6.46801 108.669 6.70267C108.435 6.92757 108.137 7.04001 107.777 7.04001ZM108.786 8.00801V16.1333H106.738V8.00801H108.786ZM110.283 12.0707C110.283 11.2298 110.454 10.4964 110.795 9.87067C111.136 9.23509 111.609 8.74625 112.214 8.40401C112.818 8.05201 113.511 7.87601 114.291 7.87601C115.296 7.87601 116.125 8.13025 116.778 8.63867C117.441 9.13734 117.885 9.84134 118.109 10.7507H115.9C115.783 10.3987 115.583 10.1249 115.3 9.92934C115.027 9.72401 114.686 9.62134 114.276 9.62134C113.691 9.62134 113.228 9.83643 112.886 10.2667C112.546 10.6871 112.374 11.2884 112.374 12.0707C112.374 12.8431 112.546 13.4444 112.886 13.8747C113.228 14.2951 113.691 14.5053 114.276 14.5053C115.106 14.5053 115.647 14.1338 115.9 13.3907H118.109C117.885 14.2707 117.441 14.9698 116.778 15.488C116.115 16.0063 115.286 16.2653 114.291 16.2653C113.511 16.2653 112.818 16.0943 112.214 15.752C111.609 15.4 111.136 14.9111 110.795 14.2853C110.454 13.6498 110.283 12.9116 110.283 12.0707ZM127.143 11.8947C127.143 12.188 127.124 12.452 127.084 12.6867H121.16C121.209 13.2733 121.413 13.7329 121.774 14.0653C122.135 14.3978 122.579 14.564 123.105 14.564C123.866 14.564 124.407 14.2364 124.729 13.5813H126.938C126.704 14.3636 126.256 15.0089 125.592 15.5173C124.929 16.016 124.115 16.2653 123.149 16.2653C122.369 16.2653 121.667 16.0943 121.043 15.752C120.428 15.4 119.946 14.9063 119.594 14.2707C119.254 13.6351 119.082 12.9018 119.082 12.0707C119.082 11.2298 119.254 10.4916 119.594 9.85601C119.936 9.22043 120.414 8.73159 121.028 8.38934C121.642 8.04709 122.35 7.87601 123.149 7.87601C123.92 7.87601 124.608 8.04225 125.212 8.37467C125.826 8.70709 126.299 9.18134 126.631 9.79734C126.972 10.4036 127.143 11.1027 127.143 11.8947ZM125.022 11.308C125.012 10.78 124.822 10.3596 124.451 10.0467C124.081 9.72401 123.628 9.56267 123.091 9.56267C122.584 9.56267 122.154 9.71909 121.803 10.032C121.462 10.3351 121.253 10.7604 121.174 11.308H125.022Z" fill="#1B9779"/>
</svg>
