<svg width="24" height="24" viewBox="0 0 24 24" fill="none" xmlns="http://www.w3.org/2000/svg">
<path d="M16.0632 3.87546C18.2725 3.88771 19.4691 3.98568 20.2495 4.76624C21.1422 5.65878 21.1422 7.09537 21.1422 9.96847V16.0633C21.1422 18.9364 21.1422 20.3731 20.2495 21.2656C19.357 22.1581 17.9204 22.1581 15.0473 22.1581H8.95253C6.07934 22.1581 4.64284 22.1581 3.75021 21.2656C2.85767 20.3731 2.85767 18.9364 2.85767 16.0633V9.96847C2.85767 7.09537 2.85767 5.65878 3.75021 4.76624C4.53077 3.98568 5.72732 3.88771 7.93667 3.87546" stroke="#878787"/>
<path d="M10.4763 14.0315H17.079" stroke="#878787" stroke-linecap="round"/>
<path d="M6.9209 14.0315H7.42883" stroke="#878787" stroke-linecap="round"/>
<path d="M6.9209 10.4762H7.42883" stroke="#878787" stroke-linecap="round"/>
<path d="M6.9209 17.5869H7.42883" stroke="#878787" stroke-linecap="round"/>
<path d="M10.4763 10.4762H17.079" stroke="#878787" stroke-linecap="round"/>
<path d="M10.4763 17.5869H17.079" stroke="#878787" stroke-linecap="round"/>
<path d="M7.93677 3.36558C7.93677 2.52402 8.61899 1.84189 9.46046 1.84189H14.5396C15.381 1.84189 16.0633 2.52402 16.0633 3.36558V4.38135C16.0633 5.22291 15.381 5.90504 14.5396 5.90504H9.46046C8.61899 5.90504 7.93677 5.22291 7.93677 4.38135V3.36558Z" stroke="#878787"/>
</svg>
