<svg width="24" height="24" viewBox="0 0 24 24" fill="none" xmlns="http://www.w3.org/2000/svg">
<path fill-rule="evenodd" clip-rule="evenodd" d="M21.1206 10.3848L19.2463 16.0077C17.9248 19.9724 17.264 21.9548 16.2949 22.518C15.3731 23.054 14.2346 23.054 13.3129 22.518C12.3439 21.9548 11.6831 19.9724 10.3615 16.0077C10.1494 15.3712 10.0432 15.0529 9.86513 14.7869C9.6926 14.5291 9.47104 14.3075 9.21327 14.135C8.94714 13.9569 8.62892 13.8507 7.99229 13.6386C4.02767 12.317 2.04535 11.6562 1.48199 10.6872C0.946108 9.76539 0.946108 8.62697 1.48199 7.70517C2.04535 6.73621 4.02767 6.07534 7.99229 4.7538L13.6154 2.87948C18.5276 1.24204 20.9838 0.423408 22.2802 1.71988C23.5767 3.01635 22.7581 5.47251 21.1206 10.3848ZM13.142 10.8012C12.8239 10.4797 12.8269 9.96104 13.1485 9.64291L17.7463 5.0957C18.0679 4.77767 18.5865 4.78054 18.9045 5.1022C19.2226 5.42377 19.2197 5.94228 18.8982 6.26041L14.3002 10.8076C13.9786 11.1257 13.4601 11.1228 13.142 10.8012Z" fill="#008DD2"/>
</svg>
