<svg width="24" height="24" viewBox="0 0 24 24" fill="none" xmlns="http://www.w3.org/2000/svg">
<path d="M1.87903 6.14052C1.87903 4.13165 1.87903 3.12712 2.50312 2.50312C3.12712 1.87903 4.13165 1.87903 6.14052 1.87903C8.14939 1.87903 9.15383 1.87903 9.77783 2.50312C10.4019 3.12712 10.4019 4.13165 10.4019 6.14052C10.4019 8.14939 10.4019 9.15383 9.77783 9.77783C9.15383 10.4019 8.14939 10.4019 6.14052 10.4019C4.13165 10.4019 3.12712 10.4019 2.50312 9.77783C1.87903 9.15383 1.87903 8.14939 1.87903 6.14052Z" stroke="#878787"/>
<path d="M13.5981 17.8595C13.5981 15.8507 13.5981 14.8463 14.2222 14.2222C14.8463 13.5981 15.8507 13.5981 17.8595 13.5981C19.8684 13.5981 20.8728 13.5981 21.4969 14.2222C22.121 14.8463 22.121 15.8507 22.121 17.8595C22.121 19.8684 22.121 20.8728 21.4969 21.4969C20.8728 22.121 19.8684 22.121 17.8595 22.121C15.8507 22.121 14.8463 22.121 14.2222 21.4969C13.5981 20.8728 13.5981 19.8684 13.5981 17.8595Z" stroke="#878787"/>
<path d="M1.87903 17.8595C1.87903 15.8507 1.87903 14.8463 2.50312 14.2222C3.12712 13.5981 4.13165 13.5981 6.14052 13.5981C8.14939 13.5981 9.15383 13.5981 9.77783 14.2222C10.4019 14.8463 10.4019 15.8507 10.4019 17.8595C10.4019 19.8684 10.4019 20.8728 9.77783 21.4969C9.15383 22.121 8.14939 22.121 6.14052 22.121C4.13165 22.121 3.12712 22.121 2.50312 21.4969C1.87903 20.8728 1.87903 19.8684 1.87903 17.8595Z" stroke="#878787"/>
<path d="M13.5981 6.14052C13.5981 4.13165 13.5981 3.12712 14.2222 2.50312C14.8463 1.87903 15.8507 1.87903 17.8595 1.87903C19.8684 1.87903 20.8728 1.87903 21.4969 2.50312C22.121 3.12712 22.121 4.13165 22.121 6.14052C22.121 8.14939 22.121 9.15383 21.4969 9.77783C20.8728 10.4019 19.8684 10.4019 17.8595 10.4019C15.8507 10.4019 14.8463 10.4019 14.2222 9.77783C13.5981 9.15383 13.5981 8.14939 13.5981 6.14052Z" stroke="#878787"/>
</svg>
