<svg width="24" height="24" viewBox="0 0 24 24" fill="none" xmlns="http://www.w3.org/2000/svg">
<path fill-rule="evenodd" clip-rule="evenodd" d="M13.9425 1.24617C13.5381 1.07996 13.0253 1.07996 12 1.07996C10.9747 1.07996 10.4619 1.07996 10.0575 1.24617C9.51828 1.46791 9.08984 1.89301 8.86652 2.42815C8.76456 2.67246 8.72473 2.9566 8.70903 3.37093C8.6861 3.97998 8.3714 4.54362 7.83961 4.84838C7.30782 5.15304 6.65856 5.14171 6.11572 4.85692C5.74624 4.66313 5.47844 4.55541 5.21426 4.52087C4.63558 4.44529 4.05039 4.60091 3.5874 4.95349C3.24012 5.21795 2.98374 5.65865 2.47108 6.53986C1.95841 7.42117 1.70203 7.86178 1.64493 8.29254C1.56869 8.86677 1.72553 9.44759 2.0808 9.90714C2.24302 10.1169 2.47089 10.2931 2.82468 10.5138C3.34468 10.838 3.67924 11.3905 3.67924 12C3.67924 12.6094 3.34458 13.1618 2.82468 13.4859C2.47089 13.7067 2.24293 13.883 2.0807 14.0928C1.72543 14.5523 1.5686 15.133 1.64483 15.7073C1.70194 16.1379 1.95832 16.5787 2.47098 17.46C2.98365 18.3412 3.24003 18.782 3.58722 19.0463C4.0503 19.3989 4.63548 19.5545 5.21417 19.479C5.47825 19.4445 5.74615 19.3367 6.11553 19.143C6.65847 18.8582 7.30773 18.8468 7.83961 19.1514C8.3714 19.4563 8.6861 20.0199 8.70903 20.6291C8.72473 21.0434 8.76456 21.3275 8.86652 21.5718C9.08993 22.1069 9.51828 22.5321 10.0575 22.7537C10.4619 22.92 10.9746 22.92 12 22.92C13.0254 22.92 13.5381 22.92 13.9425 22.7537C14.4817 22.5321 14.91 22.1069 15.1334 21.5718C15.2353 21.3275 15.2753 21.0433 15.2909 20.629C15.3139 20.0199 15.6285 19.4562 16.1603 19.1514C16.6921 18.8467 17.3414 18.8582 17.8843 19.143C18.2537 19.3367 18.5215 19.4443 18.7857 19.4789C19.3643 19.5545 19.9495 19.3989 20.4126 19.0463C20.7598 18.7819 21.0161 18.3412 21.5289 17.4599C22.0416 16.5786 22.2978 16.1379 22.355 15.7073C22.4312 15.133 22.2743 14.5522 21.9192 14.0927C21.7569 13.8829 21.529 13.7066 21.1752 13.4859C20.6553 13.1618 20.3206 12.6093 20.3206 11.9999C20.3206 11.3904 20.6553 10.8382 21.1752 10.514C21.5291 10.2932 21.7569 10.117 21.9193 9.90714C22.2744 9.44768 22.4313 8.86686 22.3552 8.29263C22.2979 7.86187 22.0416 7.42126 21.529 6.53996C21.0163 5.65865 20.76 5.21804 20.4127 4.95358C19.9497 4.60101 19.3644 4.44538 18.7858 4.52096C18.5216 4.55551 18.2537 4.66322 17.8844 4.85701C17.3415 5.14181 16.6921 5.15313 16.1604 4.84847C15.6286 4.54371 15.3139 3.97998 15.2908 3.37093C15.2752 2.9566 15.2353 2.67246 15.1334 2.42824C14.91 1.89311 14.4817 1.46782 13.9425 1.24617ZM12 15.276C13.823 15.276 15.3009 13.8093 15.3009 12C15.3009 10.1906 13.823 8.72396 12 8.72396C10.1769 8.72396 8.699 10.1906 8.699 12C8.699 13.8093 10.1769 15.276 12 15.276Z" fill="#008DD2"/>
</svg>
