<svg width="24" height="24" viewBox="0 0 24 24" fill="none" xmlns="http://www.w3.org/2000/svg">
<path d="M8.95215 12C8.95215 14.346 11.4917 15.8122 13.5233 14.6392C14.4662 14.0948 15.0471 13.0888 15.0471 12C15.0471 9.65407 12.5076 8.18786 10.4759 9.36083C9.53306 9.90525 8.95215 10.9113 8.95215 12Z" stroke="#878787"/>
<path d="M13.7935 1.9965C13.4201 1.84189 12.9469 1.84189 12.0002 1.84189C11.0535 1.84189 10.5803 1.84189 10.2068 1.9965C9.70912 2.20273 9.31355 2.59821 9.10741 3.09602C9.01325 3.32324 8.97638 3.58751 8.96199 3.97305C8.94082 4.53957 8.65027 5.06394 8.15934 5.34734C7.6684 5.63083 7.06901 5.62025 6.56776 5.35532C6.22679 5.17509 5.97942 5.0748 5.73558 5.04267C5.20137 4.97238 4.66113 5.11715 4.23361 5.44512C3.91307 5.69119 3.67638 6.10106 3.20308 6.9209C2.72979 7.74064 2.4931 8.15051 2.44036 8.55119C2.37006 9.0854 2.51483 9.62573 2.8428 10.0532C2.99248 10.2483 3.2029 10.4122 3.52948 10.6174C4.00955 10.9191 4.31848 11.4331 4.31848 12C4.31839 12.5669 4.00955 13.0808 3.52948 13.3823C3.2029 13.5876 2.99239 13.7517 2.84271 13.9468C2.51464 14.3743 2.36988 14.9145 2.44026 15.4487C2.49301 15.8493 2.7297 16.2593 3.20299 17.0791C3.67628 17.8988 3.91298 18.3088 4.23352 18.5548C4.66103 18.8828 5.20128 19.0275 5.73548 18.9572C5.97933 18.9251 6.22661 18.8248 6.56767 18.6447C7.06891 18.3797 7.66831 18.3692 8.15934 18.6526C8.65027 18.9361 8.94082 19.4604 8.96199 20.027C8.97638 20.4125 9.01325 20.6768 9.10741 20.904C9.31355 21.4018 9.70912 21.7974 10.2068 22.0035C10.5803 22.1581 11.0536 22.1581 12.0002 22.1581C12.9469 22.1581 13.4201 22.1581 13.7935 22.0035C14.2912 21.7974 14.6868 21.4018 14.893 20.904C14.9871 20.6768 15.024 20.4125 15.0384 20.0269C15.0595 19.4604 15.35 18.9361 15.8409 18.6526C16.332 18.3691 16.9314 18.3797 17.4327 18.6447C17.7737 18.8248 18.0209 18.925 18.2647 18.9571C18.7989 19.0275 19.3392 18.8828 19.7667 18.5548C20.0873 18.3087 20.324 17.8988 20.7973 17.079C21.2706 16.2592 21.5073 15.8493 21.56 15.4487C21.6303 14.9145 21.4855 14.3742 21.1576 13.9467C21.0078 13.7516 20.7974 13.5875 20.4708 13.3823C19.9908 13.0808 19.6819 12.5668 19.6819 11.9999C19.6819 11.433 19.9908 10.9192 20.4708 10.6176C20.7975 10.4124 21.008 10.2484 21.1577 10.0532C21.4856 9.62573 21.6304 9.08549 21.5601 8.55128C21.5074 8.1506 21.2708 7.74073 20.7974 6.9209C20.3241 6.10115 20.0874 5.69119 19.7668 5.44521C19.3393 5.11724 18.799 4.97247 18.2648 5.04277C18.021 5.0749 17.7738 5.17509 17.4327 5.35532C16.9315 5.62025 16.3321 5.63083 15.8411 5.34743C15.35 5.06394 15.0595 4.53948 15.0384 3.97296C15.024 3.58751 14.9871 3.32324 14.893 3.09602C14.6868 2.59821 14.2912 2.20273 13.7935 1.9965Z" stroke="#878787"/>
</svg>
