<svg width="24" height="24" viewBox="0 0 24 24" fill="none" xmlns="http://www.w3.org/2000/svg">
<path d="M15.8221 7.08601C15.8221 9.19684 14.1109 10.908 12.0001 10.908C9.88924 10.908 8.17798 9.19684 8.17798 7.08601C8.17798 4.97518 9.88915 3.26392 12.0001 3.26392C14.111 3.26392 15.8221 4.97509 15.8221 7.08601Z" fill="#008DD2"/>
<path d="M18.5521 16.914C18.5521 19.0248 15.6186 20.736 12.0001 20.736C8.38145 20.736 5.448 19.0248 5.448 16.914C5.448 14.8032 8.38145 13.092 12.0001 13.092C15.6186 13.092 18.5521 14.8032 18.5521 16.914Z" fill="#008DD2"/>
<path d="M6.67338 4.35599C6.86708 4.35599 7.05632 4.37493 7.23897 4.41114C6.79391 5.20164 6.54004 6.11415 6.54004 7.08599C6.54004 8.03406 6.78174 8.92577 7.20684 9.7028C7.03413 9.73502 6.85575 9.75182 6.67338 9.75182C5.12879 9.75182 3.87671 8.54394 3.87671 7.05386C3.87671 5.56378 5.12879 4.35599 6.67338 4.35599Z" fill="#008DD2"/>
<path d="M4.8446 19.6288C4.22441 18.8874 3.81008 17.9777 3.81008 16.914C3.81008 15.8829 4.19943 14.9965 4.78833 14.2678C2.70833 14.4291 1.08008 15.5667 1.08008 16.9461C1.08008 18.3384 2.73693 19.4844 4.8446 19.6288Z" fill="#008DD2"/>
<path d="M17.4599 7.08599C17.4599 8.03406 17.2182 8.92577 16.7931 9.7028C16.9658 9.73502 17.1442 9.75182 17.3267 9.75182C18.8712 9.75182 20.1233 8.54394 20.1233 7.05386C20.1233 5.56378 18.8712 4.35599 17.3267 4.35599C17.1329 4.35599 16.9437 4.37493 16.761 4.41114C17.206 5.20164 17.4599 6.11415 17.4599 7.08599Z" fill="#008DD2"/>
<path d="M19.1555 19.6288C21.263 19.4844 22.9199 18.3384 22.9199 16.9461C22.9199 15.5667 21.2917 14.4291 19.2117 14.2678C19.8005 14.9965 20.1899 15.8829 20.1899 16.914C20.1899 17.9777 19.7756 18.8874 19.1555 19.6288Z" fill="#008DD2"/>
</svg>
