<svg width="24" height="24" viewBox="0 0 24 24" fill="none" xmlns="http://www.w3.org/2000/svg">
<path d="M8.28247 6.8885C8.28247 9.75018 11.3804 11.5388 13.8586 10.108C15.0089 9.44384 15.7174 8.21664 15.7174 6.8885C15.7174 4.02683 12.6195 2.23831 10.1412 3.66915C8.99097 4.33317 8.28247 5.56037 8.28247 6.8885Z" stroke="#878787"/>
<path d="M17.5762 9.67663C19.116 9.67663 20.3643 8.63636 20.3643 7.35316C20.3643 6.06997 19.116 5.02979 17.5762 5.02979" stroke="#878787" stroke-linecap="round"/>
<path d="M6.42387 9.67663C4.88402 9.67663 3.63574 8.63636 3.63574 7.35316C3.63574 6.06997 4.88402 5.02979 6.42387 5.02979" stroke="#878787" stroke-linecap="round"/>
<path d="M6.42383 17.1115C6.41826 19.9732 11.0617 21.7657 14.7818 20.3381C16.5129 19.6738 17.5788 18.4431 17.5762 17.1115C17.5817 14.2498 12.9383 12.4572 9.21818 13.8849C7.48714 14.5492 6.42123 15.7799 6.42383 17.1115Z" stroke="#878787"/>
<path d="M19.4348 18.9702C21.0651 18.6127 22.2229 17.7073 22.2229 16.6468C22.2229 15.5864 21.0651 14.681 19.4348 14.3234" stroke="#878787" stroke-linecap="round"/>
<path d="M4.56523 18.9702C2.93484 18.6127 1.7771 17.7073 1.7771 16.6468C1.7771 15.5864 2.93484 14.681 4.56523 14.3234" stroke="#878787" stroke-linecap="round"/>
</svg>
