<svg width="24" height="24" viewBox="0 0 24 24" fill="none" xmlns="http://www.w3.org/2000/svg">
<path d="M22.1571 10.9841C22.1479 7.8206 22.0478 6.14351 20.968 5.06358C19.7779 3.87352 17.8623 3.87352 14.0315 3.87352H9.96828C6.13737 3.87352 4.222 3.87352 3.03185 5.06358C1.8418 6.25373 1.8418 8.16909 1.8418 12C1.8418 15.8308 1.8418 17.7464 3.03185 18.9363C4.222 20.1265 6.13737 20.1265 9.96828 20.1265H11.492" stroke="#878787" stroke-linecap="round"/>
<path d="M15.5555 14.0316V20.1265M15.5555 20.1265L17.5872 18.0949M15.5555 20.1265L13.5239 18.0949M20.1267 20.1265V14.0316M20.1267 14.0316L22.1583 16.0632M20.1267 14.0316L18.0951 16.0632" stroke="#878787" stroke-linecap="round" stroke-linejoin="round"/>
<path d="M9.96852 16.0632H5.90527" stroke="#878787" stroke-linecap="round"/>
<path d="M1.8418 9.96838H22.158" stroke="#878787" stroke-linecap="round"/>
</svg>
