<svg width="22" height="22" viewBox="0 0 22 22" fill="none" xmlns="http://www.w3.org/2000/svg">
<path fill-rule="evenodd" clip-rule="evenodd" d="M11.0001 21.92C17.031 21.92 21.9201 17.0309 21.9201 11C21.9201 4.96902 17.031 0.0800018 11.0001 0.0800018C4.9691 0.0800018 0.0800781 4.96902 0.0800781 11C0.0800781 12.7469 0.490228 14.3978 1.21953 15.8621C1.41332 16.2513 1.47786 16.696 1.3655 17.1159L0.715128 19.5468C0.43275 20.602 1.39809 21.5673 2.45341 21.285L4.88423 20.6346C5.30413 20.5222 5.74891 20.5868 6.13799 20.7805C7.60216 21.5099 9.25325 21.92 11.0001 21.92ZM6.63208 12.365C6.17977 12.365 5.81308 12.7317 5.81308 13.184C5.81308 13.6363 6.17977 14.003 6.63208 14.003H12.6381C13.0904 14.003 13.4571 13.6363 13.4571 13.184C13.4571 12.7317 13.0904 12.365 12.6381 12.365H6.63208ZM5.81308 9.362C5.81308 8.90969 6.17977 8.543 6.63208 8.543H15.3681C15.8204 8.543 16.1871 8.90969 16.1871 9.362C16.1871 9.81431 15.8204 10.181 15.3681 10.181H6.63208C6.17977 10.181 5.81308 9.81431 5.81308 9.362Z" fill="#008DD2"/>
</svg>
